<?xml version="1.0" encoding="UTF-8"?>
<svg width="222px" height="142px" viewBox="0 0 222 142" version="1.1" xmlns="http://www.w3.org/2000/svg" xmlns:xlink="http://www.w3.org/1999/xlink">
    <title>Group 13</title>
    <g id="Wireframe" stroke="none" stroke-width="1" fill="none" fill-rule="evenodd">
        <g id="首頁B版-Copy-11" transform="translate(-195.000000, -2143.000000)">
            <g id="Group-13" transform="translate(195.000000, 2143.000000)">
                <g id="Group-29-Copy-3" transform="translate(0.000000, 70.000000)" opacity="0.601997012">
                    <g id="Group-14">
                        <path d="M57.6465534,37 L60.3534466,37 C64.7087616,37 68.4391291,40.1186305 69.2109853,44.405005 L72.0921378,60.405005 C72.9730292,65.2968886 69.7214776,69.9766473 64.8295941,70.8575387 C64.3032182,70.9523242 63.769441,71 63.2345991,71 L54.7654009,71 C49.7948381,71 45.7654009,66.9705627 45.7654009,62 C45.7654009,61.4651582 45.8130767,60.9313809 45.9078622,60.405005 L48.7890147,44.405005 C49.5608709,40.1186305 53.2912384,37 57.6465534,37 Z" id="Rectangle-Copy-13" fill="#E8D3C0" opacity="0.546029954" style="mix-blend-mode: multiply;"></path>
                        <path d="M13.6465534,37 L16.3534466,37 C20.7087616,37 24.4391291,40.1186305 25.2109853,44.405005 L28.0921378,60.405005 C28.9730292,65.2968886 25.7214776,69.9766473 20.8295941,70.8575387 C20.3032182,70.9523242 19.769441,71 19.2345991,71 L10.7654009,71 C5.79483815,71 1.7654009,66.9705627 1.7654009,62 C1.7654009,61.4651582 1.81307668,60.9313809 1.90786224,60.405005 L4.7890147,44.405005 C5.56087086,40.1186305 9.29123838,37 13.6465534,37 Z" id="Rectangle-Copy-14" fill="#E8D3C0" opacity="0.498878116" style="mix-blend-mode: multiply;"></path>
                        <circle id="Oval-Copy-21" fill="#D69F6D" opacity="0.546029954" style="mix-blend-mode: multiply;" cx="59" cy="29" r="15"></circle>
                        <circle id="Oval-Copy-22" fill="#D69F6D" opacity="0.498878116" style="mix-blend-mode: multiply;" cx="15" cy="29" r="15"></circle>
                        <g id="Group-19" transform="translate(18.000000, 0.000000)" fill="#F3F7FE">
                            <path d="M18.5,0 C28.7172679,0 37,8.28273213 37,18.5 C37,24.7325114 33.9180171,30.2451871 29.1949561,33.5971225 C30.122624,34.890236 30.7795652,36.4009332 31.0766846,38.0535591 L34.6724086,58.0535591 C35.7473982,64.0328257 31.7716962,69.7514303 25.7924296,70.8264199 C25.1500504,70.9419108 24.4986671,71 23.8459887,71 L13.1540113,71 C7.07887907,71 2.15401131,66.0751322 2.15401131,60 C2.15401131,59.3473216 2.21210051,58.6959382 2.32759141,58.0535591 L5.92331542,38.0535591 C6.22043476,36.4009332 6.87737597,34.890236 7.80463644,33.596314 C3.08198285,30.2451871 0,24.7325114 0,18.5 C0,8.28273213 8.28273213,0 18.5,0 Z" id="Combined-Shape"></path>
                        </g>
                        <g id="Group-19" transform="translate(18.000000, 0.000000)">
                            <path d="M16.7497353,29 L20.2502647,29 C25.5745764,29 30.134552,32.8132651 31.0766846,38.0535591 L34.6724086,58.0535591 C35.7473982,64.0328257 31.7716962,69.7514303 25.7924296,70.8264199 C25.1500504,70.9419108 24.4986671,71 23.8459887,71 L13.1540113,71 C7.07887907,71 2.15401131,66.0751322 2.15401131,60 C2.15401131,59.3473216 2.21210051,58.6959382 2.32759141,58.0535591 L5.92331542,38.0535591 C6.86544796,32.8132651 11.4254236,29 16.7497353,29 Z" id="Rectangle-Copy-12" fill="#E8D3C0" style="mix-blend-mode: multiply;"></path>
                            <circle id="Oval-Copy-16" fill="#D69F6D" style="mix-blend-mode: multiply;" cx="18.5" cy="18.5" r="18.5"></circle>
                        </g>
                    </g>
                </g>
                <g id="Group-29-Copy-3" transform="translate(148.000000, 70.000000)" opacity="0.601997012">
                    <g id="Group-14">
                        <path d="M57.6465534,37 L60.3534466,37 C64.7087616,37 68.4391291,40.1186305 69.2109853,44.405005 L72.0921378,60.405005 C72.9730292,65.2968886 69.7214776,69.9766473 64.8295941,70.8575387 C64.3032182,70.9523242 63.769441,71 63.2345991,71 L54.7654009,71 C49.7948381,71 45.7654009,66.9705627 45.7654009,62 C45.7654009,61.4651582 45.8130767,60.9313809 45.9078622,60.405005 L48.7890147,44.405005 C49.5608709,40.1186305 53.2912384,37 57.6465534,37 Z" id="Rectangle-Copy-13" fill="#E8D3C0" opacity="0.546029954" style="mix-blend-mode: multiply;"></path>
                        <path d="M13.6465534,37 L16.3534466,37 C20.7087616,37 24.4391291,40.1186305 25.2109853,44.405005 L28.0921378,60.405005 C28.9730292,65.2968886 25.7214776,69.9766473 20.8295941,70.8575387 C20.3032182,70.9523242 19.769441,71 19.2345991,71 L10.7654009,71 C5.79483815,71 1.7654009,66.9705627 1.7654009,62 C1.7654009,61.4651582 1.81307668,60.9313809 1.90786224,60.405005 L4.7890147,44.405005 C5.56087086,40.1186305 9.29123838,37 13.6465534,37 Z" id="Rectangle-Copy-14" fill="#E8D3C0" opacity="0.498878116" style="mix-blend-mode: multiply;"></path>
                        <circle id="Oval-Copy-21" fill="#D69F6D" opacity="0.546029954" style="mix-blend-mode: multiply;" cx="59" cy="29" r="15"></circle>
                        <circle id="Oval-Copy-22" fill="#D69F6D" opacity="0.498878116" style="mix-blend-mode: multiply;" cx="15" cy="29" r="15"></circle>
                        <g id="Group-19" transform="translate(18.000000, 0.000000)" fill="#F3F7FE">
                            <path d="M18.5,0 C28.7172679,0 37,8.28273213 37,18.5 C37,24.7325114 33.9180171,30.2451871 29.1949561,33.5971225 C30.122624,34.890236 30.7795652,36.4009332 31.0766846,38.0535591 L34.6724086,58.0535591 C35.7473982,64.0328257 31.7716962,69.7514303 25.7924296,70.8264199 C25.1500504,70.9419108 24.4986671,71 23.8459887,71 L13.1540113,71 C7.07887907,71 2.15401131,66.0751322 2.15401131,60 C2.15401131,59.3473216 2.21210051,58.6959382 2.32759141,58.0535591 L5.92331542,38.0535591 C6.22043476,36.4009332 6.87737597,34.890236 7.80463644,33.596314 C3.08198285,30.2451871 0,24.7325114 0,18.5 C0,8.28273213 8.28273213,0 18.5,0 Z" id="Combined-Shape"></path>
                        </g>
                        <g id="Group-19" transform="translate(18.000000, 0.000000)">
                            <path d="M16.7497353,29 L20.2502647,29 C25.5745764,29 30.134552,32.8132651 31.0766846,38.0535591 L34.6724086,58.0535591 C35.7473982,64.0328257 31.7716962,69.7514303 25.7924296,70.8264199 C25.1500504,70.9419108 24.4986671,71 23.8459887,71 L13.1540113,71 C7.07887907,71 2.15401131,66.0751322 2.15401131,60 C2.15401131,59.3473216 2.21210051,58.6959382 2.32759141,58.0535591 L5.92331542,38.0535591 C6.86544796,32.8132651 11.4254236,29 16.7497353,29 Z" id="Rectangle-Copy-12" fill="#E8D3C0" style="mix-blend-mode: multiply;"></path>
                            <circle id="Oval-Copy-16" fill="#D69F6D" style="mix-blend-mode: multiply;" cx="18.5" cy="18.5" r="18.5"></circle>
                        </g>
                    </g>
                </g>
                <g id="Group-2" transform="translate(74.000000, 0.000000)">
                    <g id="Group-15" fill="#F3F7FE">
                        <path d="M37.4848796,0.39800995 C57.9048567,0.39800995 74.4585188,17.0166422 74.4585188,37.516764 C74.4585188,49.0681167 69.2026212,59.3870708 60.9606911,66.1948523 L62.3279472,73.8074802 C66.3615714,69.2933205 67.661242,69.3582681 68.5286719,82.6544775 C68.9349445,88.8819381 68.1541185,93.5532484 66.4899878,97.0203776 L72.3481633,129.683771 C73.3232245,135.119863 69.7068443,140.31713 64.2707519,141.292191 C63.6880601,141.396708 63.0972384,141.449275 62.5052474,141.449275 L12.4645119,141.449275 C6.94166437,141.449275 2.46451186,136.972123 2.46451186,131.449275 C2.46451186,130.857284 2.51707967,130.266463 2.62159595,129.683771 L7.90854732,100.204248 C5.60042671,98.8670858 6.36996977,97.1902881 8.64296541,96.1120221 L9.14691154,93.3103497 C8.23235613,92.6039485 7.29531638,91.8005893 6.33474215,90.8938754 C-4.57091663,80.5997079 0.675452199,82.814139 11.1390951,82.188028 L14.0084162,66.1943137 C5.76686085,59.3865266 0.511240443,49.0678121 0.511240443,37.516764 C0.511240443,17.0166422 17.0649026,0.39800995 37.4848796,0.39800995 Z" id="Combined-Shape"></path>
                    </g>
                    <g id="Group-15">
                        <path d="M23.9684323,57.3134328 L51.0013269,57.3134328 C55.8431386,57.3134328 59.9894187,60.7821738 60.8442428,65.5479283 L72.3481633,129.683771 C73.3232245,135.119863 69.7068443,140.31713 64.2707519,141.292191 C63.6880601,141.396708 63.0972384,141.449275 62.5052474,141.449275 L12.4645119,141.449275 C6.94166437,141.449275 2.46451186,136.972123 2.46451186,131.449275 C2.46451186,130.857284 2.51707967,130.266463 2.62159595,129.683771 L14.1255164,65.5479283 C14.9803405,60.7821738 19.1266207,57.3134328 23.9684323,57.3134328 Z" id="Rectangle-Copy-12" fill="#E8D3C0" style="mix-blend-mode: multiply;"></path>
                        <ellipse id="Oval-Copy-16" fill="#D69F6D" style="mix-blend-mode: multiply;" cx="37.4848796" cy="37.516764" rx="36.9736392" ry="37.1187541"></ellipse>
                        <path d="M46.5758473,67.5904287 C45.6252034,68.8888312 45.1687882,69.9755851 45.2066016,70.8506905 C36.1326549,83.8449916 26.3350704,109.772765 6.33474215,90.8938754 C-14.7197335,71.0199454 24.4279541,97.7683167 45.0937791,60.690026 C49.0516595,57.5066365 53.1904945,58.556053 46.5758473,67.5904287 Z" id="Combined-Shape-Copy-2" fill="#FFB775" style="mix-blend-mode: multiply;"></path>
                        <path d="M68.346155,78.0071427 C67.4887827,79.1955413 66.9629337,80.2398603 66.7686081,81.1400996 C55.8841357,97.2017407 44.0363793,128.156674 20.086405,105.243478 C-5.01088903,81.2326278 40.6520363,112.762572 65.882864,70.0930918 C70.8535449,65.4991597 76.7399225,66.3725917 68.346155,78.0071427 Z" id="Combined-Shape-Copy-3" fill="#FFB775" style="mix-blend-mode: multiply;" transform="translate(42.677894, 90.454193) scale(-1, 1) rotate(50.000000) translate(-42.677894, -90.454193) "></path>
                        <path d="M40.1572576,48.36016 L42.2092891,50.7145432 C43.293104,51.9580503 43.1636479,53.8447175 41.9201408,54.9285324 C41.3762633,55.4025648 40.6791838,55.6637104 39.9577203,55.6637104 L35.8336753,55.6637104 C34.1841407,55.6637104 32.8469286,54.3264984 32.8469286,52.6769637 C32.8469286,51.9555003 33.1080742,51.2584208 33.5821066,50.7145432 L35.6341381,48.36016 C36.7227622,47.111135 38.6178013,46.9811045 39.8668263,48.0697287 C39.970158,48.1597905 40.0671958,48.2568283 40.1572576,48.36016 Z" id="Triangle" fill="#A68C55" style="mix-blend-mode: multiply;" transform="translate(37.895698, 50.714543) scale(1, -1) translate(-37.895698, -50.714543) "></path>
                    </g>
                    <g id="Group-15" fill="#48718A">
                        <path d="M37.4848796,0.39800995 C57.9048567,0.39800995 74.4585188,17.0166422 74.4585188,37.516764 C74.4585188,49.0681167 69.2026212,59.3870708 60.9606911,66.1948523 L62.3279472,73.8074802 C66.3615714,69.2933205 67.661242,69.3582681 68.5286719,82.6544775 C68.9349445,88.8819381 68.1541185,93.5532484 66.4899878,97.0203776 L72.3481633,129.683771 C73.3232245,135.119863 69.7068443,140.31713 64.2707519,141.292191 C63.6880601,141.396708 63.0972384,141.449275 62.5052474,141.449275 L12.4645119,141.449275 C6.94166437,141.449275 2.46451186,136.972123 2.46451186,131.449275 C2.46451186,130.857284 2.51707967,130.266463 2.62159595,129.683771 L7.90854732,100.204248 C5.60042671,98.8670858 6.36996977,97.1902881 8.64296541,96.1120221 L9.14691154,93.3103497 C8.23235613,92.6039485 7.29531638,91.8005893 6.33474215,90.8938754 C-4.57091663,80.5997079 0.675452199,82.814139 11.1390951,82.188028 L14.0084162,66.1943137 C5.76686085,59.3865266 0.511240443,49.0678121 0.511240443,37.516764 C0.511240443,17.0166422 17.0649026,0.39800995 37.4848796,0.39800995 Z" id="Combined-Shape" style="mix-blend-mode: lighten;"></path>
                    </g>
                </g>
            </g>
        </g>
    </g>
</svg>