<?xml version="1.0" encoding="UTF-8"?>
<svg width="280px" height="172px" viewBox="0 0 280 172" version="1.1" xmlns="http://www.w3.org/2000/svg" xmlns:xlink="http://www.w3.org/1999/xlink">
    <title>Group 9</title>
    <g id="Wireframe" stroke="none" stroke-width="1" fill="none" fill-rule="evenodd">
        <g id="首頁B版-Copy-11" transform="translate(-869.000000, -653.000000)">
            <g id="Group-28" transform="translate(935.149140, 700.000000)">
                <g id="Group-12" transform="translate(-66, -47)">
                    <g id="Group-11" transform="translate(66.000000, 47.000000)" fill="#F3F7FE">
                        <path d="M59.3508604,0 C76.74783,0 90.8508604,14.1030304 90.8508604,31.5 C90.8508604,44.2926237 83.2250768,55.3041501 72.2713197,60.2367692 C73.0479988,61.5188121 73.6402777,62.933485 74.0082449,64.4461301 C79.1064429,65.4454187 93.5213919,74.7166631 111.838395,57.080423 C116.756995,53.466487 121.599027,55.1709728 112.24305,63.1925426 C111.81315,63.5611273 111.442613,63.9202011 111.131437,64.2697639 C100.744367,73.2442042 85.7566924,93.7750183 76.7132192,79.4294364 L81.7014212,107.36314 C83.1577185,115.518405 77.7271322,123.310116 69.5718671,124.766414 C68.7015155,124.921834 67.8191271,125 66.9350076,125 L39.7667133,125 C31.482442,125 24.7667133,118.284271 24.7667133,110 C24.7667133,109.11588 24.8448797,108.233492 25.0002996,107.36314 L28.5557112,87.4589286 C21.7673044,91.3609548 11.3409843,92.1761575 5.79301602,94.8571349 L5.79301602,94.8571349 L5.87192433,94.8196544 C-2.48971787,97.2209458 0.548689149,91.6365322 5.70550315,90.2223988 C6.03423386,90.1322522 6.30133412,90.0025702 6.50904314,89.8348341 C31.0047706,81.7609201 26.5815699,53.2402701 32.2834468,66.5677109 L32.5002996,65.3631404 C33.2418865,61.2102541 35.6496523,57.7127045 38.9608447,55.5091038 C32.1632725,49.7328902 27.8508604,41.120054 27.8508604,31.5 C27.8508604,14.1030304 41.9538908,0 59.3508604,0 Z" id="Combined-Shape"></path>
                    </g>
                    <g id="Group-8" transform="translate(204.850860, 69.000000)">
                        <ellipse id="Oval" fill="#D0B896" style="mix-blend-mode: multiply;" cx="9" cy="56.5" rx="9" ry="8.5"></ellipse>
                        <ellipse id="Oval-Copy-8" fill="#D0B896" style="mix-blend-mode: multiply;" cx="20" cy="24.5" rx="7" ry="7.5"></ellipse>
                        <ellipse id="Oval-Copy-12" fill="#D0B896" style="mix-blend-mode: multiply;" cx="40" cy="52.5" rx="7" ry="7.5"></ellipse>
                        <circle id="Oval-Copy-13" fill="#D0B896" style="mix-blend-mode: multiply;" cx="55" cy="32" r="4"></circle>
                        <ellipse id="Oval-Copy-14" fill="#D0B896" style="mix-blend-mode: multiply;" cx="45" cy="10.5" rx="10" ry="10.5"></ellipse>
                        <ellipse id="Oval-Copy-15" fill="#D0B896" style="mix-blend-mode: multiply;" cx="67" cy="63.5" rx="7" ry="7.5"></ellipse>
                        <line x1="24.7777778" y1="29.7307692" x2="37.2222222" y2="47.2692308" id="Path-5" stroke="#E0CDBB" stroke-width="2" style="mix-blend-mode: multiply;"></line>
                        <line x1="15.75" y1="56.1666667" x2="32.25" y2="52.8333333" id="Path-6" stroke="#E0CDBB" stroke-width="2" style="mix-blend-mode: multiply;"></line>
                        <line x1="44.25" y1="19.7105263" x2="39.75" y2="45.2894737" id="Path-7" stroke="#E0CDBB" stroke-width="2" style="mix-blend-mode: multiply;"></line>
                        <line x1="58.3181818" y1="61.7500642" x2="44.6818182" y2="55.0833975" id="Path-8" stroke="#E0CDBB" stroke-width="2" style="mix-blend-mode: multiply;"></line>
                        <line x1="53.2142857" y1="35.7222222" x2="43.7857143" y2="47.2777778" id="Path-9" stroke="#E0CDBB" stroke-width="2" style="mix-blend-mode: multiply;"></line>
                    </g>
                    <g id="PrimeHub" opacity="0.49988011" transform="translate(0.850860, 63.000000)" fill-rule="nonzero">
                        <g id="Logo">
                            <path d="M38.9246753,23.2 L38.9246753,22.9656566 L38.9246753,22.7313131 L37.4113636,21.7939394 L21.3204545,12.2053872 C20.6883117,11.8343434 19.9220779,11.8343434 19.2899351,12.2053872 L1.18766234,22.9851852 C0.574675325,23.356229 0.191558442,24.020202 0.191558442,24.7622896 L0.22987013,46.3609428 C0.22987013,47.0835017 0.612987013,47.7670034 1.22597403,48.1185185 L17.2402597,57.6875421 C18.5811688,58.4882155 20.2668831,57.5117845 20.2668831,55.9299663 L20.3435065,36.6747475 C20.3435065,35.9521886 20.7266234,35.2686869 21.3396104,34.9171717 L37.3922078,25.3481481 C37.3922078,25.3481481 37.8902597,25.0552189 38.35,25.1919192 C38.8097403,25.3286195 38.9246753,25.6996633 38.9246753,26.2074074 L38.9246753,23.2 Z" id="Shape" fill="#C7DBF4"></path>
                            <path d="M58.6743506,34.6242424 C58.8659091,34.3313131 58.9616883,33.979798 58.9616883,33.6087542 L59,11.8538721 C59,11.1703704 58.6551948,10.5454545 58.0613636,10.1939394 L41.7214286,0.449158249 C40.4762987,-0.292929293 38.8863636,0.624915825 38.8863636,2.10909091 L38.9055195,22.8680135 L58.6743506,34.6242424 Z" id="Shape" fill="#365ABD"></path>
                            <path d="M39.6525974,44.8377104 C38.962987,44.3690236 38.9438312,43.4707071 38.9438312,43.4707071 L38.8863636,22.7313131 L58.9233766,34.7218855 L41.549026,45.1111111 C40.6295455,45.5212121 39.6525974,44.8377104 39.6525974,44.8377104 Z" id="Shape" fill="#A3D00D"></path>
                            <path d="M0.900324675,47.8841751 L1.05357143,48.0013468 C1.09188312,48.0208754 1.11103896,48.0599327 1.14935065,48.0794613 L17.336039,57.7461279 C17.3551948,57.7656566 17.3743506,57.7656566 17.4126623,57.7851852 C17.6616883,57.9023569 18.5811688,58.2148148 19.3474026,57.6484848 C19.3474026,57.6484848 20.0944805,57.1602694 20.2285714,56.3400673 C20.2285714,56.3010101 20.2668831,56.2424242 20.2477273,56.1252525 L20.3435065,36.6161616 C20.3435065,36.6161616 20.3626623,36.0693603 20.5733766,35.7569024 L0.478896104,23.6686869 L0.45974026,23.7077441 C0.249025974,24.0983165 0.153246753,24.5474747 0.172402597,24.9771044 C0.172402597,25.1333333 0.172402597,25.2700337 0.172402597,25.4262626 C0.172402597,25.6996633 0.172402597,25.9925926 0.172402597,26.2659933 C0.172402597,26.6175084 0.172402597,26.9885522 0.172402597,27.3400673 C0.172402597,27.769697 0.172402597,28.179798 0.172402597,28.6094276 C0.172402597,29.0781145 0.172402597,29.56633 0.172402597,30.0350168 C0.172402597,30.5427609 0.172402597,31.0700337 0.172402597,31.5777778 C0.172402597,32.1245791 0.172402597,32.6713805 0.172402597,33.2181818 C0.172402597,33.7845118 0.172402597,34.3313131 0.172402597,34.8976431 C0.172402597,35.4639731 0.172402597,36.030303 0.172402597,36.596633 C0.172402597,37.1434343 0.172402597,37.7097643 0.172402597,38.2565657 C0.172402597,38.7838384 0.172402597,39.3306397 0.172402597,39.8579125 C0.172402597,40.3656566 0.172402597,40.8538721 0.172402597,41.3616162 C0.172402597,41.8107744 0.172402597,42.2599327 0.172402597,42.7286195 C0.172402597,43.1191919 0.172402597,43.5292929 0.172402597,43.9198653 C0.172402597,44.2518519 0.172402597,44.5643098 0.172402597,44.8962963 C0.172402597,45.1306397 0.172402597,45.3845118 0.172402597,45.6188552 C0.172402597,45.7750842 0.172402597,45.9117845 0.172402597,46.0680135 C0.172402597,46.1070707 0.172402597,46.1461279 0.172402597,46.1851852 C0.22987013,46.2047138 0.114935065,47.2397306 0.900324675,47.8841751 Z" id="Shape" fill="#95B4E6"></path>
                        </g>
                    </g>
                    <rect id="Rectangle" fill="#EAD8B7" style="mix-blend-mode: multiply;" x="174.85086" y="28" width="13" height="30"></rect>
                    <rect id="Rectangle-Copy-10" fill="#EAD8B7" style="mix-blend-mode: multiply;" x="190.85086" y="0" width="14" height="58"></rect>
                    <rect id="Rectangle-Copy-11" fill="#EAD8B7" style="mix-blend-mode: multiply;" x="208.85086" y="16" width="13" height="42"></rect>
                </g>
                <g id="Group-11" transform="">
                    <path d="M47.2667133,53 L59.4350076,53 C66.7020938,53 72.9239355,58.2092204 74.2014212,65.3631404 L81.7014212,107.36314 C83.1577185,115.518405 77.7271322,123.310116 69.5718671,124.766414 C68.7015155,124.921834 67.8191271,125 66.9350076,125 L39.7667133,125 C31.482442,125 24.7667133,118.284271 24.7667133,110 C24.7667133,109.11588 24.8448797,108.233492 25.0002996,107.36314 L32.5002996,65.3631404 C33.7777853,58.2092204 39.9996271,53 47.2667133,53 Z" id="Rectangle" fill="#E8D3C0" style="mix-blend-mode: multiply;"></path>
                    <circle id="Oval" fill="#D69F6D" style="mix-blend-mode: multiply;" cx="59.3508604" cy="31.5" r="31.5"></circle>
                    <path d="M72.5258587,45.2894719 L75.1008604,48 C76.2270956,49.1855108 76.1790433,51.0595511 74.9935326,52.1857864 C74.4432746,52.7085315 73.7132804,53 72.9543033,53 L67.7474175,53 C66.112229,53 64.7866468,51.6744178 64.7866468,50.0392293 C64.7866468,49.2802521 65.0781153,48.550258 65.6008604,48 L68.1758621,45.2894719 C69.3170196,44.0882535 71.2158904,44.0395645 72.4171088,45.180722 C72.4542821,45.2160367 72.490544,45.2522985 72.5258587,45.2894719 Z" id="Triangle" fill="#A68C55" style="mix-blend-mode: multiply;" transform="translate(70.350860, 48.000000) scale(1, -1) translate(-70.350860, -48.000000) "></path>
                    <path d="M38.0893391,72.2607777 L38.1515476,72.1994472 C30.1788062,79.9549008 22.4822429,104.726378 4.820878,89.4824706 C-11.148207,75.6992068 16.2598269,92.6326759 33.1872328,71.1545646 C33.4158939,71.0167511 33.6291088,70.8101128 33.8262514,70.5320389 C36.9188364,66.169881 43.205665,65.2246942 38.0893391,72.2607777 Z" id="Combined-Shape" fill="#FFB775" style="mix-blend-mode: multiply;" transform="translate(20.013533, 80.730908) scale(-1, 1) rotate(70.000000) translate(-20.013533, -80.730908) "></path>
                    <path d="M109.684575,56.7008507 C109.406665,57.1942414 109.181284,57.6583917 109.008432,58.0933016 C101.622332,71.3238373 93.784609,99.7037378 77.4626761,79.6951906 C61.0292013,59.5499078 90.3896189,85.4614302 107.213855,51.0957371 C110.599789,46.0174877 115.732779,45.9631082 109.684575,56.7008507 Z" id="Combined-Shape-Copy" fill="#FFB775" style="mix-blend-mode: multiply;" transform="translate(92.555705, 67.201613) rotate(20.000000) translate(-92.555705, -67.201613) "></path>
                </g>
                <g id="Group-11" transform="" fill="#48718A">
                    <path d="M59.3508604,0 C76.74783,0 90.8508604,14.1030304 90.8508604,31.5 C90.8508604,44.2926237 83.2250768,55.3041501 72.2713197,60.2367692 C73.0479988,61.5188121 73.6402777,62.933485 74.0082449,64.4461301 C79.1064429,65.4454187 93.5213919,74.7166631 111.838395,57.080423 C116.756995,53.466487 121.599027,55.1709728 112.24305,63.1925426 C111.81315,63.5611273 111.442613,63.9202011 111.131437,64.2697639 C100.744367,73.2442042 85.7566924,93.7750183 76.7132192,79.4294364 L81.7014212,107.36314 C83.1577185,115.518405 77.7271322,123.310116 69.5718671,124.766414 C68.7015155,124.921834 67.8191271,125 66.9350076,125 L39.7667133,125 C31.482442,125 24.7667133,118.284271 24.7667133,110 C24.7667133,109.11588 24.8448797,108.233492 25.0002996,107.36314 L28.5557112,87.4589286 C21.7673044,91.3609548 11.3409843,92.1761575 5.79301602,94.8571349 L5.79301602,94.8571349 L5.87192433,94.8196544 C-2.48971787,97.2209458 0.548689149,91.6365322 5.70550315,90.2223988 C6.03423386,90.1322522 6.30133412,90.0025702 6.50904314,89.8348341 C31.0047706,81.7609201 26.5815699,53.2402701 32.2834468,66.5677109 L32.5002996,65.3631404 C33.2418865,61.2102541 35.6496523,57.7127045 38.9608447,55.5091038 C32.1632725,49.7328902 27.8508604,41.120054 27.8508604,31.5 C27.8508604,14.1030304 41.9538908,0 59.3508604,0 Z" id="Combined-Shape" style="mix-blend-mode: lighten;"></path>
                </g>
            </g>
        </g>
    </g>
</svg>