<?xml version="1.0" encoding="UTF-8"?>
<svg width="290px" height="176px" viewBox="0 0 290 176" version="1.1" xmlns="http://www.w3.org/2000/svg" xmlns:xlink="http://www.w3.org/1999/xlink">
    <title>Group 7</title>
    <defs>
        <ellipse id="path-1" cx="31.4516129" cy="31.5" rx="31.4516129" ry="31.5"></ellipse>
        <filter id="filter-3">
            <feColorMatrix in="SourceGraphic" type="matrix" values="0 0 0 0 1.000000 0 0 0 0 1.000000 0 0 0 0 1.000000 0 0 0 1.000000 0"></feColorMatrix>
        </filter>
        <filter id="filter-4">
            <feColorMatrix in="SourceGraphic" type="matrix" values="0 0 0 0 1.000000 0 0 0 0 1.000000 0 0 0 0 1.000000 0 0 0 1.000000 0"></feColorMatrix>
        </filter>
        <linearGradient x1="6.88775519%" y1="9.14856261e-08%" x2="71.1431008%" y2="64.1103734%" id="linearGradient-5">
            <stop stop-color="#5A9FD4" offset="0%"></stop>
            <stop stop-color="#306998" offset="100%"></stop>
        </linearGradient>
        <linearGradient x1="49.9999998%" y1="82.2756107%" x2="27.1010658%" y2="44.914431%" id="linearGradient-6">
            <stop stop-color="#FFD43B" offset="0%"></stop>
            <stop stop-color="#FFE873" offset="100%"></stop>
        </linearGradient>
        <filter id="filter-7">
            <feColorMatrix in="SourceGraphic" type="matrix" values="0 0 0 0 1.000000 0 0 0 0 1.000000 0 0 0 0 1.000000 0 0 0 1.000000 0"></feColorMatrix>
        </filter>
        <filter id="filter-8">
            <feColorMatrix in="SourceGraphic" type="matrix" values="0 0 0 0 1.000000 0 0 0 0 1.000000 0 0 0 0 1.000000 0 0 0 1.000000 0"></feColorMatrix>
        </filter>
    </defs>
    <g id="Wireframe" stroke="none" stroke-width="1" fill="none" fill-rule="evenodd">
        <g id="首頁B版-Copy-11" transform="translate(-294.000000, -649.000000)">
            <g id="Group-7" transform="translate(294.000000, 700.000000)">
                <g id="Group-3" transform="translate(0.000000, 0)" fill="#F3F7FE">
                    <path d="M35.4516129,0 C52.8218591,0 66.9032258,14.1030304 66.9032258,31.5 C66.9032258,44.4588094 59.0900463,55.5899454 47.9243156,60.4259173 C48.6553858,61.4733276 49.2580187,62.6238726 49.706709,63.8550673 C55.1999422,67.5963025 63.4598587,70.2671919 76.3685242,67.0505537 C82.3909937,66.3714871 85.7041016,70.2307832 73.6798574,72.5023447 C73.1290948,72.6063921 72.6336932,72.7314788 72.1936525,72.877605 C66.5292893,73.9697296 59.1256469,76.4354635 52.42346,77.6409914 L57.7996892,107.327173 C59.2758509,115.478866 53.8642637,123.283784 45.7125708,124.759946 C44.8305901,124.91966 43.9360688,125 43.0397436,125 L15.9602564,125 C7.67598513,125 0.960256382,118.284271 0.960256382,110 C0.960256382,109.103675 1.04059594,108.209154 1.20031076,107.327173 L8.62485804,66.3271728 C9.42575004,61.9044692 12.1165293,58.2294928 15.7733443,56.0738234 C8.5950176,50.3009327 4,41.4379038 4,31.5 C4,14.1030304 18.0813667,0 35.4516129,0 Z" id="Combined-Shape"></path>
                </g>
                <g id="Group-3" transform="translate(-2.000000, 0)">
                    <path d="M73.7448844,55.7867777 C73.470566,56.2755666 73.24795,56.7354705 73.0770364,57.1664893 C65.7654231,70.3099208 58.0069249,98.5121486 41.8484593,78.6318037 C25.5817312,58.6182596 54.6421399,84.3582201 71.2968119,50.2227957 C74.6477855,45.1728208 79.7338025,45.1155406 73.7448844,55.7867777 Z" id="Combined-Shape-Copy" fill="#FFB775" style="mix-blend-mode: multiply;" transform="translate(56.789046, 66.219343) rotate(50.000000) translate(-56.789046, -66.219343) "></path>
                    <path d="M25.3848037,54 L37.6151963,54 C44.8684958,54 51.0826876,59.1899525 52.375142,66.3271728 L59.7996892,107.327173 C61.2758509,115.478866 55.8642637,123.283784 47.7125708,124.759946 C46.8305901,124.91966 45.9360688,125 45.0397436,125 L17.9602564,125 C9.67598513,125 2.96025638,118.284271 2.96025638,110 C2.96025638,109.103675 3.04059594,108.209154 3.20031076,107.327173 L10.624858,66.3271728 C11.9173124,59.1899525 18.1315042,54 25.3848037,54 Z" id="Rectangle" fill="#E8D3C0"></path>
                    <g id="Group-6" transform="translate(6.000000, 0.000000)">
                        <mask id="mask-2" fill="white">
                            <use xlink:href="#path-1"></use>
                        </mask>
                        <use id="Oval" fill="#D69F6D" style="mix-blend-mode: multiply;" xlink:href="#path-1"></use>
                        <path d="M60.785818,36.8891976 L62.7984965,39.2570547 C63.8715556,40.5194771 63.7180462,42.4127589 62.4556238,43.485818 C61.9132221,43.9468594 61.2245485,44.2 60.5126786,44.2 L56.4873214,44.2 C54.8304672,44.2 53.4873214,42.8568542 53.4873214,41.2 C53.4873214,40.4881301 53.740462,39.7994564 54.2015035,39.2570547 L56.214182,36.8891976 C57.2872411,35.6267752 59.1805229,35.4732659 60.4429453,36.5463249 C60.5663006,36.6511769 60.6809659,36.7658423 60.785818,36.8891976 Z" id="Triangle" fill="#A68C55" style="mix-blend-mode: multiply;" mask="url(#mask-2)"></path>
                    </g>
                    <path d="M53.3836391,79.6640344 L53.4474397,79.6000379 C45.555231,87.3051314 37.9364108,111.915755 20.4534435,96.7708338 C4.6458862,83.0772657 31.776079,99.9001068 48.5325576,78.5628467 C48.75839,78.426218 48.9701131,78.2205306 49.1658333,77.9434569 C52.2276274,73.6089915 58.4523239,72.6703012 53.3836391,79.6640344 Z" id="Combined-Shape" fill="#FFB775" style="mix-blend-mode: multiply;" transform="translate(35.492637, 88.076099) rotate(80.000000) translate(-35.492637, -88.076099) "></path>
                </g>
                <g id="Group-3" fill="#48718A">
                    <path d="M35.4516129,0 C52.8218591,0 66.9032258,14.1030304 66.9032258,31.5 C66.9032258,44.4588094 59.0900463,55.5899454 47.9243156,60.4259173 C48.6553858,61.4733276 49.2580187,62.6238726 49.706709,63.8550673 C55.1999422,67.5963025 63.4598587,70.2671919 76.3685242,67.0505537 C82.3909937,66.3714871 85.7041016,70.2307832 73.6798574,72.5023447 C73.1290948,72.6063921 72.6336932,72.7314788 72.1936525,72.877605 C66.5292893,73.9697296 59.1256469,76.4354635 52.42346,77.6409914 L57.7996892,107.327173 C59.2758509,115.478866 53.8642637,123.283784 45.7125708,124.759946 C44.8305901,124.91966 43.9360688,125 43.0397436,125 L15.9602564,125 C7.67598513,125 0.960256382,118.284271 0.960256382,110 C0.960256382,109.103675 1.04059594,108.209154 1.20031076,107.327173 L8.62485804,66.3271728 C9.42575004,61.9044692 12.1165293,58.2294928 15.7733443,56.0738234 C8.5950176,50.3009327 4,41.4379038 4,31.5 C4,14.1030304 18.0813667,0 35.4516129,0 Z" id="Combined-Shape" style="mix-blend-mode: lighten;"></path>
                </g>
                <g id="Group-43" transform="translate(77.000000, -51.000000)">
                    <circle id="Oval-Copy-33" fill="#CD281E" opacity="0.601081485" cx="110.5" cy="92.5" r="11.5"></circle>
                    <g filter="url(#filter-3)" id="60531c00fa1ff840756d3d3c_PyTorch_logo_black">
                        <g transform="translate(104.000000, 84.959459)">
                            <path d="M11.0845839,4.40848636 L9.91405184,5.52586785 C11.8294679,7.35431029 11.8294679,10.3001342 9.91405184,12.0947166 C7.99863574,13.9231591 4.91268759,13.9231591 3.03274216,12.0947166 C1.11732606,10.2662742 1.11732606,7.32045025 3.03274216,5.52586785 L6.06548431,2.63083399 L6.49113233,2.22451345 L6.49113233,0.0405405405 L1.9154161,4.40848636 C-0.638472033,6.84640962 -0.638472033,10.7741749 1.9154161,13.2120981 C4.46930423,15.6500214 8.58390177,15.6500214 11.0845839,13.2120981 C13.638472,10.7572448 13.638472,6.84640962 11.0845839,4.40848636 Z" id="Path" fill="#EE4C2C" fill-rule="nonzero"></path>
                            <path d="M10,4.04054054 C10,4.60304054 9.5625,5.04054054 9,5.04054054 C8.4375,5.04054054 8,4.60304054 8,4.04054054 C8,3.47804054 8.4375,3.04054054 9,3.04054054 C9.5625,3.04054054 10,3.47804054 10,4.04054054 Z" id="Path-1" fill="#EE4C2C" fill-rule="nonzero"></path>
                        </g>
                    </g>
                    <circle id="Oval-Copy-34" fill="#FFBE78" opacity="0.601081485" cx="80.5" cy="137.5" r="9.5"></circle>
                    <circle id="Oval-Copy-36" fill="#E6BFAF" opacity="0.601081485" transform="translate(145.000000, 128.000000) scale(-1, -1) translate(-145.000000, -128.000000) " cx="145" cy="128" r="5"></circle>
                    <circle id="Oval-Copy-35" fill="#3E82AA" opacity="0.601081485" cx="17" cy="30" r="17"></circle>
                    <g filter="url(#filter-4)" id="Group">
                        <g transform="translate(8.000000, 21.000000)">
                            <path d="M8.67555438,0.000154881589 C7.95147189,0.00374327303 7.25998932,0.069606362 6.65155586,0.184432647 C4.85918712,0.522156516 4.53376244,1.22904153 4.53376228,2.5326579 L4.53376228,4.25433874 L8.76934943,4.25433874 L8.76934943,4.82823236 L4.53376228,4.82823236 L2.94418296,4.82823236 C1.71320341,4.82823236 0.635322468,5.61735684 0.298175102,7.11854173 C-0.0907201208,8.83924806 -0.107969738,9.91299682 0.298175102,11.7096906 C0.59925577,13.04708 1.31827718,14 2.54925642,14 L4.00554803,14 L4.00554803,11.936089 C4.00554803,10.4450352 5.21515179,9.12980225 6.65155586,9.12980191 L10.8822064,9.12980191 C12.0598696,9.12980191 13,8.09562852 13,6.83422746 L13,2.5326579 C13,1.30840674 12.0316433,0.388755217 10.8822064,0.184432647 C10.1545958,0.0552528299 9.39963687,-0.00343350985 8.67555438,0.000154881589 Z M6.38498044,1.38487068 C6.82248749,1.38487068 7.17977011,1.77215237 7.17977011,2.24834364 C7.17977011,2.72284705 6.82248749,3.10655152 6.38498044,3.10655152 C5.94590491,3.10655152 5.59019078,2.72284688 5.59019078,2.24834364 C5.59019078,1.77215254 5.94590491,1.38487068 6.38498044,1.38487068 Z" id="path1948-copy" fill="url(#linearGradient-5)" fill-rule="nonzero"></path>
                            <path d="M13.9761784,5 L13.9761784,6.99073043 C13.9761784,8.53411687 12.7424286,9.833138 11.3355463,9.83313817 L7.11349096,9.83313817 C5.95699927,9.83313817 5,10.8829034 5,12.1112444 L5,16.3800805 C5,17.5950159 5.99612335,18.3096273 7.11349096,18.6581867 C8.45151594,19.0754538 9.73461183,19.1508646 11.3355463,18.6581867 C12.3997061,18.3314118 13.4490378,17.6737756 13.4490373,16.3800805 L13.4490373,14.6715014 L9.22698192,14.6715014 L9.22698192,14.1019748 L13.4490373,14.1019748 L15.5625289,14.1019748 C16.7910077,14.1019748 17.2487892,13.1931721 17.6760183,11.8290936 C18.1173317,10.424796 18.0985541,9.07433636 17.6760183,7.27288119 C17.3724197,5.97583352 16.79257,5 15.5625289,5 L13.9761784,5 Z M11.6015802,15.8105545 C12.039764,15.8105545 12.3947551,16.1913396 12.3947551,16.6622313 C12.3947551,17.1347983 12.0397635,17.5191336 11.6015802,17.5191336 C11.1649615,17.5191336 10.8084052,17.1347983 10.8084052,16.6622313 C10.8084052,16.1913396 11.164961,15.8105545 11.6015802,15.8105545 Z" id="path1950-copy" fill="url(#linearGradient-6)" fill-rule="nonzero"></path>
                        </g>
                    </g>
                    <circle id="Oval-Copy-30" fill="#F37727" cx="176.5" cy="23.5" r="23.5"></circle>
                    <g filter="url(#filter-7)" id="Jupyter_logo">
                        <g transform="translate(162.000000, 6.000000)">
                            <g id="Group" transform="translate(0.000000, 13.000000)" fill="#4E4E4E" fill-rule="nonzero">
                                <g id="g">
                                    <g id="path" transform="translate(0.000000, 1.435897)">
                                        <g id="path0_fill-link" transform="translate(0.363913, 0.258462)">
                                            <path d="M1.17596478,3.93100615 C1.17596478,5.04958462 1.09196826,5.41392205 0.875972391,5.68237744 C0.635580196,5.91298974 0.323494435,6.04051897 0,6.04032513 L0.0839978696,6.67950769 C0.585522609,6.68673026 1.07216196,6.4979959 1.45195913,6.14898667 C1.65630978,5.88349641 1.80837826,5.57688923 1.89908696,5.24743692 C1.98980239,4.91798462 2.01729804,4.57244308 1.97994304,4.23142462 L1.97994304,0 L1.17596478,0 L1.17596478,3.90544 L1.17596478,3.93100615 Z" id="path0_fill"></path>
                                        </g>
                                    </g>
                                    <g id="path" transform="translate(3.369565, 1.435897)">
                                        <g id="path1_fill-link" transform="translate(0.458261, 0.265641)">
                                            <path d="M3.70789652,3.41965436 C3.70789652,3.89904308 3.70789652,4.32729949 3.74389022,4.69802667 L3.02991304,4.69802667 L2.98191696,3.9373959 C2.83257783,4.20652615 2.61900804,4.4287241 2.36292783,4.58141026 C2.10684087,4.73409641 1.817375,4.81182872 1.52395326,4.80668821 C0.827976304,4.80668821 0,4.40400513 0,2.76128821 L0,0.0319594154 L0.803978261,0.0319594154 L0.803978261,2.58870769 C0.803978261,3.47718359 1.06197239,4.07162359 1.78795196,4.07162359 C1.9373113,4.07333949 2.08548457,4.04325744 2.22379174,3.98315077 C2.36209891,3.9230441 2.48774326,3.83412615 2.59336565,3.72160205 C2.6989813,3.60908513 2.78245217,3.47522359 2.83887217,3.32788615 C2.89528543,3.18054154 2.92352239,3.02267897 2.92191848,2.86356 L2.92191848,0 L3.72589,0 L3.72589,3.39408821 L3.70789652,3.41965436 Z" id="path1_fill"></path>
                                        </g>
                                    </g>
                                    <g id="path" transform="translate(8.760870, 1.435897)">
                                        <g id="path2_fill-link" transform="translate(0.262826, 0.186667)">
                                            <path d="M0.0359989522,1.63163897 C0.0359989522,1.03719179 0.0359989522,0.551410462 0,0.110370974 L0.719981739,0.110370974 L0.755975435,0.909353846 C0.916386957,0.620691795 1.14731674,0.383811077 1.42414674,0.223966974 C1.70098348,0.0641232308 2.01334217,-0.0126923282 2.32793152,0.0017094 C3.39590174,0.0017094 4.19988,0.95409641 4.19988,2.37309333 C4.19988,4.04776615 3.23390652,4.87871282 2.18993435,4.87871282 C1.92273457,4.89141333 1.65697696,4.83043077 1.41837804,4.70165949 C1.17977913,4.57288103 0.97641913,4.38067897 0.827976304,4.14364821 L0.827976304,4.14364821 L0.827976304,6.70039282 L0.0359989522,6.70039282 L0.0359989522,1.65081538 L0.0359989522,1.63163897 Z M0.827976304,2.87805538 C0.830153043,2.99403282 0.842202609,3.10955795 0.863976739,3.22321641 C0.932048696,3.50702872 1.087015,3.75855487 1.30434522,3.93799179 C1.52168217,4.1174359 1.7889763,4.21454564 2.06393957,4.21395958 C2.90991609,4.21395958 3.40790413,3.47889231 3.40790413,2.41144615 C3.40790413,1.47823487 2.9399187,0.67924841 2.09394217,0.67924841 C1.75915565,0.708455282 1.44586696,0.866750769 1.21280761,1.12445128 C0.979748261,1.38215179 0.842923696,1.72156923 0.827976304,2.07907179 L0.827976304,2.87805538 Z" id="path2_fill"></path>
                                        </g>
                                    </g>
                                    <g id="path" transform="translate(13.478261, 1.435897)">
                                        <g id="path3_fill-link" transform="translate(0.289783, 0.280000)">
                                            <path d="M0.887974783,0.0127837231 L1.85394826,2.76768513 C1.955945,3.07449333 2.06393957,3.44522051 2.13594043,3.72007282 C2.21993696,3.43883077 2.3099313,3.08088308 2.41793261,2.74850872 L3.293905,0.0127837231 L4.13988152,0.0127837231 L2.9399187,3.33655897 C2.33993391,4.93452615 1.97394522,5.75908308 1.42195652,6.25764821 C1.1439337,6.52818564 0.804975652,6.71754462 0.437987543,6.80734564 L0.239993239,6.09145744 C0.496597087,6.00163487 0.734821304,5.8606441 0.941975435,5.67598769 C1.23467609,5.42186256 1.46696043,5.09775179 1.61995217,4.72998974 C1.65269761,4.66630051 1.67501761,4.59712615 1.68594848,4.52544615 C1.67912848,4.44830974 1.66090587,4.37281026 1.63195457,4.30173333 L0,0 L0.875972391,0 L0.887974783,0.0127837231 Z" id="path3_fill"></path>
                                        </g>
                                    </g>
                                    <g id="path" transform="translate(18.195652, 0.000000)">
                                        <g id="path4_fill-link" transform="translate(0.370652, 0.387692)">
                                            <path d="M1.47595717,0 L1.47595717,1.34229128 L2.62792391,1.34229128 L2.62792391,1.98148103 L1.47595717,1.98148103 L1.47595717,4.49988 C1.47595717,5.07515077 1.63195457,5.40752513 2.07594196,5.40752513 C2.23363087,5.41027487 2.39096935,5.39093333 2.54392739,5.35000308 L2.57992783,5.98918564 C2.35056826,6.07383897 2.10854587,6.11283795 1.86594391,6.1042441 C1.70528304,6.1149559 1.54434587,6.08851385 1.39417783,6.02672718 C1.24400978,5.96494051 1.10816913,5.86927385 0.995969348,5.74629641 C0.751581522,5.39806256 0.64010013,4.96412 0.683981304,4.53184308 L0.683981304,1.97509128 L0,1.97509128 L0,1.33590154 L0.695976957,1.33590154 L0.695976957,0.198148103 L1.47595717,0 Z" id="path4_fill"></path>
                                        </g>
                                    </g>
                                    <g id="path" transform="translate(21.565217, 1.435897)">
                                        <g id="path5_fill-link" transform="translate(0.316739, 0.208205)">
                                            <path d="M0.793303478,2.56953128 C0.777021739,2.78630872 0.805110435,3.00426359 0.875635435,3.20834051 C0.946160435,3.41241744 1.05743696,3.59774154 1.20178239,3.75151179 C1.34612109,3.90528923 1.52007826,4.02383692 1.71163804,4.09897026 C1.90319783,4.17410359 2.10778435,4.20402769 2.31126565,4.18668205 C2.72283109,4.19648923 3.13171435,4.1137241 3.51122848,3.94378564 L3.64922565,4.58297538 C3.18351804,4.78734667 2.68274674,4.88533949 2.1792663,4.87060718 C1.88575022,4.89201641 1.59136478,4.84553641 1.31630043,4.73434769 C1.04122935,4.62316615 0.791996087,4.44991077 0.585678283,4.22647795 C0.379364522,4.00303795 0.220856804,3.73469744 0.121028717,3.43987179 C0.0212002261,3.14503897 -0.0175865696,2.83069949 0.00732866956,2.51839897 C0.00732866956,1.11218872 0.793303478,0 2.07726957,0 C3.5172263,0 3.87721717,1.34229128 3.87721717,2.1988041 C3.88491326,2.33077744 3.88491326,2.46313128 3.87721717,2.59510462 L0.77531,2.59510462 L0.793303478,2.56953128 Z M3.14523978,1.93034872 C3.16839543,1.75945538 3.15689848,1.58526667 3.11151717,1.41951385 C3.06614261,1.25376103 2.98794174,1.10029231 2.8821913,0.969453333 C2.77643413,0.838621538 2.64558717,0.73345641 2.49845848,0.661046974 C2.35132978,0.588638974 2.19133609,0.550670974 2.02927348,0.549701744 C1.69961543,0.575122872 1.39076109,0.730785641 1.16323457,0.986188718 C0.935708043,1.24158462 0.80591913,1.57830256 0.799308043,1.93034872 L3.14523978,1.93034872 Z" id="path5_fill"></path>
                                        </g>
                                    </g>
                                    <g id="path" transform="translate(26.282609, 1.435897)">
                                        <g id="path6_fill-link" transform="translate(0.660435, 0.172308)">
                                            <path d="M0.0359989522,1.57394462 C0.0359989522,1.02424718 0.0359989522,0.551245333 0,0.116597744 L0.719981739,0.116597744 L0.719981739,1.03063692 L0.755975435,1.03063692 C0.831548043,0.748526154 0.987686957,0.498481846 1.20271913,0.315214667 C1.4177513,0.131946769 1.6810087,0.0245509744 1.955945,0.00793606154 C2.0316187,-0.00264534667 2.10826283,-0.00264534667 2.18393652,0.00793606154 L2.18393652,0.806924103 C2.09224391,0.795609231 1.99963478,0.795609231 1.90794217,0.806924103 C1.63558696,0.81816 1.37637978,0.93464 1.1787413,1.13461026 C0.981102826,1.33457333 0.858551739,1.60434256 0.83397413,1.89353949 C0.811539565,2.02432821 0.799496739,2.15689744 0.797980435,2.28983282 L0.797980435,4.7762759 L0.00599982761,4.7762759 L0.00599982761,1.58033436 L0.0359989522,1.57394462 Z" id="path6_fill"></path>
                                        </g>
                                    </g>
                                </g>
                            </g>
                            <g id="g" fill-rule="nonzero">
                                <g id="path" transform="translate(22.091198, 0.000000)" fill="#767677">
                                    <g id="path7_fill-link" transform="translate(0.331368, 0.472778)">
                                        <path d="M4.16321749,1.94294537 C4.18845668,2.35276148 4.09021988,2.760755 3.88100933,3.11495463 C3.67179878,3.46916111 3.36109988,3.75353352 2.9884766,3.93185981 C2.61585331,4.11017926 2.19818469,4.17437426 1.788676,4.11627056 C1.37916732,4.05816 0.996354464,3.88038185 0.689002384,3.60557463 C0.381650994,3.33077426 0.163675069,2.97138093 0.0628430389,2.57318556 C-0.0379890601,2.17499019 -0.0171131539,1.75601315 0.122811185,1.36963722 C0.262735454,0.983261296 0.51537454,0.646966241 0.848543637,0.403599426 C1.18171343,0.160232611 1.58033529,0.0208081148 1.99362019,0.00308705389 C2.26458945,-0.0117120074 2.53583485,0.0268006074 2.79174757,0.116410222 C3.0476672,0.206019426 3.2832146,0.344958537 3.48484511,0.525236241 C3.68646872,0.70551463 3.85020592,0.923574815 3.96662653,1.16687722 C4.08304715,1.41017963 4.14985922,1.67392796 4.16321749,1.94294537 L4.16321749,1.94294537 Z" id="path7_fill"></path>
                                    </g>
                                </g>
                                <g id="path" transform="translate(1.380700, 21.240741)" fill="#F37726">
                                    <g id="path8_fill-link" transform="translate(0.144973, 0.185000)">
                                        <path d="M12.9069207,4.88014926 C7.37542269,4.88014926 2.51377817,2.90978963 0,0 C0.975354019,2.61768833 2.73527004,4.87598333 5.04286139,6.4709163 C7.35043203,8.06586296 10.0949873,8.92083704 12.9069207,8.92083704 C15.7189231,8.92083704 18.4634093,8.06586296 20.7710421,6.4709163 C23.0786058,4.87598333 24.838515,2.61768833 25.8139104,0 C23.3062832,2.90978963 18.4630642,4.88014926 12.9069207,4.88014926 Z" id="path8_fill"></path>
                                    </g>
                                </g>
                                <g id="path" transform="translate(1.380700, 2.740741)" fill="#F37726">
                                    <g id="path9_fill-link" transform="translate(0.144973, 0.602963)">
                                        <path d="M12.9069207,4.04070833 C18.4384877,4.04070833 23.3001391,6.01106796 25.8139104,8.92083704 C24.838515,6.30316926 23.0786058,4.04487426 20.7710421,2.4499413 C18.4634093,0.855008333 15.7189231,0 12.9069207,0 C10.0949873,0 7.35043203,0.855008333 5.04286139,2.4499413 C2.73527004,4.04487426 0.975354019,6.30316926 0,8.92083704 C2.51377817,6.00496981 7.35084624,4.04070833 12.9069207,4.04070833 Z" id="path9_fill"></path>
                                    </g>
                                </g>
                                <g id="path" transform="translate(1.380700, 29.462963)" fill="#9E9E9E">
                                    <g id="path10_fill-link" transform="translate(0.193298, 0.061667)">
                                        <path d="M5.24373251,2.44375407 C5.27617896,2.95994519 5.15306195,3.47403963 4.89007314,3.9205337 C4.62707742,4.36702778 4.23611844,4.72570852 3.76700494,4.95088093 C3.29789144,5.17605333 2.77185859,5.25752185 2.25593246,5.18490593 C1.73999943,5.11228315 1.25752766,4.88887167 0.869985907,4.54312722 C0.482443467,4.19738278 0.207376982,3.744955 0.0798299968,3.24349537 C-0.047716367,2.74202889 -0.021968247,2.21423759 0.15379409,1.727345 C0.329556496,1.24045926 0.647375663,0.816528333 1.06675635,0.509561944 C1.48614394,0.202594185 1.98810429,0.0264889167 2.50869029,0.00368348019 C2.84971626,-0.0144211611 3.19099766,0.0343396315 3.513039,0.147179833 C3.83507345,0.260020926 4.13155804,0.434729444 4.38554469,0.661326352 C4.63953134,0.88792463 4.84605643,1.16196444 4.99330117,1.4678037 C5.14055281,1.77363611 5.22565225,2.10527259 5.24373251,2.44375407 L5.24373251,2.44375407 Z" id="path10_fill"></path>
                                    </g>
                                </g>
                                <g id="path" transform="translate(0.000000, 3.425926)" fill="#616262">
                                    <g id="path11_fill-link" transform="translate(0.600604, 0.294630)">
                                        <path d="M1.55370849,3.00072056 C1.2556499,3.00888796 0.961809353,2.92940648 0.709141273,2.77227296 C0.456475953,2.61513259 0.256262042,2.38734963 0.133680054,2.11757852 C0.0110982038,1.84780056 -0.0283787676,1.54807315 0.0202137226,1.25608833 C0.0688062127,0.964103519 0.203298394,0.692893519 0.40677697,0.476575074 C0.610256236,0.260253889 0.873637858,0.108475778 1.16379884,0.0403284241 C1.45395293,-0.0278188611 1.75793472,-0.00929261852 2.03751954,0.0935771111 C2.31709747,0.196447389 2.55978999,0.379067741 2.73506984,0.618472815 C2.9103566,0.857879259 3.01040901,1.14338222 3.02264201,1.43907389 C3.03428822,1.8389 2.88656714,2.22715333 2.61154552,2.5195287 C2.33652391,2.81191093 1.95639652,2.98482426 1.55370849,3.00072056 Z" id="path11_fill"></path>
                                    </g>
                                </g>
                            </g>
                        </g>
                    </g>
                    <circle id="Oval-Copy-31" fill="#7AB4E3" opacity="0.601081485" cx="98.5" cy="12.5" r="12.5"></circle>
                    <g filter="url(#filter-8)" id="docker-vector-logo">
                        <g transform="translate(90.000000, 7.000000)">
                            <path d="M16.8344256,5.06805444 C16.7871186,5.03202562 16.3613559,4.73658927 15.4467545,4.73658927 C15.2102197,4.73658927 14.9658003,4.75820657 14.7292655,4.79423539 C14.5558066,3.6917534 13.5544757,3.15852682 13.5150533,3.12970376 L13.2706339,3 L13.112944,3.20896717 C12.9158317,3.48999199 12.7660263,3.80704564 12.6792968,4.13130504 C12.5137224,4.75820657 12.6162209,5.34907926 12.9631386,5.85348279 C12.5452604,6.06965572 11.8671938,6.12009608 11.7252729,6.12730184 L0.529290218,6.12730184 C0.237563907,6.12730184 0.00102906132,6.34347478 0.00102906132,6.61008807 C-0.0147399284,7.50360288 0.150834464,8.39711769 0.489867743,9.24019215 C0.876207992,10.16253 1.45177612,10.8470777 2.19291864,11.265012 C3.02867509,11.7333867 4.3926927,12 5.9301692,12 C6.62400475,12 7.3178403,11.9423539 8.00379135,11.8270616 C8.95781523,11.6685348 9.87241664,11.3658927 10.7160576,10.9263411 C11.4098931,10.5588471 12.0327682,10.0904724 12.5610294,9.54283427 C13.4519773,8.62770216 13.9802385,7.60448359 14.3665787,6.69655725 C14.4217702,6.69655725 14.4690771,6.69655725 14.5242686,6.69655725 C15.4940615,6.69655725 16.0932831,6.34347478 16.4244319,6.04083267 C16.6451977,5.85348279 16.8107721,5.62289832 16.9290395,5.36349079 L17,5.17614091 L16.8344256,5.06805444 Z" id="Path" fill="#0091E2" fill-rule="nonzero"></path>
                            <path d="M1.15178571,5 L2.84821429,5 C2.92857143,5 3,4.96568627 3,4.91666667 L3,4.91666667 L3,4.08333333 C3,4.03921569 2.9375,4 2.84821429,4 C2.84821429,4 2.84821429,4 2.84821429,4 L1.15178571,4 C1.07142857,4 1,4.03431373 1,4.08333333 C1,4.08333333 1,4.08333333 1,4.08333333 L1,4.91666667 C1.00892857,4.96568627 1.07142857,5 1.15178571,5 L1.15178571,5" id="Path" fill="#0091E2" fill-rule="nonzero"></path>
                            <path d="M3.15178571,5 L4.84821429,5 C4.92857143,5 5,4.96568627 5,4.91666667 L5,4.91666667 L5,4.08333333 C5,4.03921569 4.9375,4 4.84821429,4 C4.84821429,4 4.84821429,4 4.84821429,4 L3.15178571,4 C3.07142857,4 3,4.03431373 3,4.08333333 L3,4.91666667 C3.00892857,4.96568627 3.07142857,5 3.15178571,5" id="Path" fill="#0091E2" fill-rule="nonzero"></path>
                            <path d="M5.15178571,5 L6.84821429,5 C6.92857143,5 7,4.96568627 7,4.91666667 L7,4.91666667 L7,4.08333333 C7,4.03921569 6.9375,4 6.84821429,4 C6.84821429,4 6.84821429,4 6.84821429,4 L5.15178571,4 C5.07142857,4 5,4.03431373 5,4.08333333 C5,4.08333333 5,4.08333333 5,4.08333333 L5,4.91666667 C5,4.96568627 5.0625,5 5.15178571,5 L5.15178571,5" id="Path" fill="#0091E2" fill-rule="nonzero"></path>
                            <path d="M8.15178571,5 L9.84821429,5 C9.92857143,5 10,4.96568627 10,4.91666667 L10,4.08333333 C10,4.03921569 9.9375,4 9.84821429,4 L9.84821429,4 L8.15178571,4 C8.07142857,4 8,4.03431373 8,4.08333333 C8,4.08333333 8,4.08333333 8,4.08333333 L8,4.91666667 C8,4.96568627 8.07142857,5 8.15178571,5 L8.15178571,5" id="Path" fill="#0091E2" fill-rule="nonzero"></path>
                            <path d="M3.15178571,3 L4.84821429,3 C4.92857143,3 5,2.96078431 5,2.91666667 L5,2.08333333 C5,2.03921569 4.9375,2 4.84821429,2 L4.84821429,2 L3.15178571,2 C3.07142857,2 3,2.03431373 3,2.08333333 L3,2.91666667 C3.00892857,2.96078431 3.07142857,3 3.15178571,3" id="Path" fill="#0091E2" fill-rule="nonzero"></path>
                            <path d="M5.15178571,3 L6.84821429,3 C6.92857143,3 7,2.96078431 7,2.91666667 L7,2.08333333 C7,2.03921569 6.9375,2 6.84821429,2 L6.84821429,2 L5.15178571,2 C5.07142857,2 5,2.03431373 5,2.08333333 L5,2.08333333 L5,2.91666667 C5,2.96078431 5.0625,3 5.15178571,3" id="Path" fill="#0091E2" fill-rule="nonzero"></path>
                            <path d="M8.15178571,3 L9.84821429,3 C9.92857143,3 10,2.96078431 10,2.91666667 L10,2.08333333 C10,2.03921569 9.92857143,2 9.84821429,2 L8.15178571,2 C8.07142857,2 8,2.03431373 8,2.08333333 L8,2.08333333 L8,2.91666667 C8,2.96078431 8.07142857,3 8.15178571,3" id="Path" fill="#0091E2" fill-rule="nonzero"></path>
                            <path d="M8.15178571,1 L9.84821429,1 C9.92857143,1 10,0.965686275 10,0.916666667 L10,0.0833333333 C10,0.0392156863 9.92857143,0 9.84821429,0 L8.15178571,0 C8.07142857,0 8,0.0343137255 8,0.0833333333 L8,0.0833333333 L8,0.916666667 C8,0.960784314 8.07142857,1 8.15178571,1" id="Path" fill="#0091E2" fill-rule="nonzero"></path>
                            <path d="M10.1517857,5 L11.8482143,5 C11.9285714,5 12,4.96568627 12,4.91666667 L12,4.08333333 C12,4.03921569 11.9375,4 11.8482143,4 L11.8482143,4 L10.1517857,4 C10.0714286,4 10,4.03431373 10,4.08333333 C10,4.08333333 10,4.08333333 10,4.08333333 L10,4.91666667 C10.0089286,4.96568627 10.0714286,5 10.1517857,5" id="Path" fill="#0091E2" fill-rule="nonzero"></path>
                        </g>
                    </g>
                    <circle id="Oval-Copy-32" fill="#D5D4A5" opacity="0.601081485" cx="167" cy="86" r="5"></circle>
                    <circle id="Oval-Copy-24" fill="#FF8201" opacity="0.601081485" cx="128.5" cy="51.5" r="11.5"></circle>
                    <g id="TF_White_Icon" transform="translate(123.000000, 45.000000)" fill="#FFFFFF" fill-rule="nonzero">
                        <polygon id="Path" points="10.9930297 3.17207577 6 0 6 13 7.99504337 11.7118824 7.99504337 8.0550404 9.50139405 9.02371175 9.49287485 6.52238707 7.99504337 5.57093655 7.99504337 4.11836005 11 6.04881441"></polygon>
                        <polygon id="Path" points="0.00697026022 3.17207577 5 0 5 13 3.00495663 11.7118824 3.00495663 4.11836005 0 6.04881441"></polygon>
                    </g>
                    <circle id="Oval-Copy-37" fill="#AEC59E" opacity="0.601081485" transform="translate(76.000000, 52.000000) scale(-1, -1) translate(-76.000000, -52.000000) " cx="76" cy="52" r="5"></circle>
                    <circle id="Oval-Copy-38" fill="#FFBE78" opacity="0.601081485" transform="translate(203.500000, 118.500000) scale(-1, -1) translate(-203.500000, -118.500000) " cx="203.5" cy="118.5" r="9.5"></circle>
                    <circle id="Oval-Copy-39" fill="#D5D4A5" opacity="0.601081485" transform="translate(45.000000, 91.000000) scale(-1, -1) translate(-45.000000, -91.000000) " cx="45" cy="91" r="5"></circle>
                </g>
            </g>
        </g>
    </g>
</svg>